# AST/ASF file generated using VICON BodyLanguage
# -----------------------------------------------
:version 1.10
:name VICON
:units
  mass 1.0
  length 0.45
  angle deg
:documentation
   .ast/.asf automatically generated from VICON data using
   VICON BodyBuilder and BodyLanguage model FoxedUp or BRILLIANT.MOD
:root
   order TX TY TZ RX RY RZ
   axis XYZ
   position 0 0 0  
   orientation 0 0 0 
:bonedata
  begin
     id 1 
     name lhipjoint
     direction 0.561001 -0.76473 0.316963 
     length 2.4722 
     axis 0 0 0  XYZ
  end
  begin
     id 2 
     name lfemur
     direction 0.34202 -0.939693 0  
     length 7.59403  
     axis 0 0 20  XYZ
    dof rx ry rz
    limits (-160.0 20.0)
           (-70.0 70.0)
           (-60.0 70.0)
  end
  begin
     id 3 
     name ltibia
     direction 0.34202 -0.939693 0   
     length 7.89655   
     axis 0 0 20   XYZ
    dof rx
    limits (-10.0 170.0)
  end
  begin
     id 4 
     name lfoot
     direction 0.061296 -0.168409 0.98381   
     length 2.73287   
     axis -90 7.62852e-016 20   XYZ
    dof rx rz
    limits (-45.0 90.0)
           (-70.0 20.0)
  end
  begin
     id 5 
     name ltoes
     direction 1.53547e-011 -4.21984e-011 1   
     length 1.37057   
     axis -90 7.62852e-016 20   XYZ
    dof rx
    limits (-90.0 20.0)
  end
  begin
     id 6 
     name rhipjoint
     direction -0.559611 -0.765599 0.317323   
     length 2.46939  
     axis 0 0 0  XYZ 
  end
  begin
     id 7 
     name rfemur
     direction -0.34202 -0.939693 0   
     length 7.53712   
     axis 0 0 -20   XYZ
    dof rx ry rz
    limits (-160.0 20.0)
           (-70.0 70.0)
           (-70.0 60.0)
  end
  begin
     id 8 
     name rtibia
     direction -0.34202 -0.939693 0   
     length 8.12549   
     axis 0 0 -20   XYZ
    dof rx
    limits (-10.0 170.0)
 end
 begin
     id 9 
     name rfoot
     direction -0.066984 -0.184037 0.980634   
     length 2.67541  
     axis -90 -7.62852e-016 -20   XYZ
    dof rx rz
    limits (-45.0 90.0)
           (-20.0 70.0)
  end
  begin
     id 10 
     name rtoes
     direction -1.53549e-011 -4.21786e-011 1   
     length 1.34085   
     axis -90 -7.62852e-016 -20   XYZ
    dof rx
    limits (-90.0 20.0)
  end
  begin
     id 11 
     name lowerback
     direction -0.0522728 0.992594 -0.109658   
     length 2.05633   
     axis 0 0 0   XYZ
    dof rx ry rz
    limits (-20.0 45.0)
           (-30.0 30.0)
           (-30.0 30.0)
  end
  begin
     id 12 
     name upperback
     direction 0.00589338 0.999977 0.00335704   
     length 2.05845   
     axis 0 0 0   XYZ
    dof rx ry rz
    limits (-20.0 45.0)
           (-30.0 30.0)
           (-30.0 30.0)
  end
  begin
     id 13 
     name thorax
     direction 0.0292928 0.998059 0.0549487   
     length 2.09281   
     axis 0 0 0   XYZ
    dof rx ry rz
    limits (-20.0 45.0)
           (-30.0 30.0)
           (-30.0 30.0)
  end
  begin
     id 14 
     name lowerneck
     direction 0.0356368 0.980775 0.191858   
     length 1.84767   
     axis 0 0 0   XYZ
    dof rx ry rz
    limits (-20.0 45.0)
           (-30.0 30.0)
           (-30.0 30.0)
  end
  begin
     id 15 
     name upperneck
     direction -0.0227605 0.98931 -0.14404   
     length 1.89582   
     axis 0 0 0   XYZ
    dof rx ry rz
    limits (-20.0 45.0)
           (-30.0 30.0)
           (-30.0 30.0)
  end
  begin
     id 16
     name head
     direction -0.00932985 0.997511 -0.0698904  
     length 1.90213  
     axis 0 0 0   XYZ
    dof rx ry rz
    limits (-20.0 45.0)
           (-30.0 30.0)
           (-30.0 30.0)
  end
  begin
     id 17 
     name lclavicle
     direction 0.873442 0.479511 0.0846686  
     length 3.41193  
     axis 0 0 0   XYZ
    dof ry rz
    limits (-20.0 10.0)
           (0.0 20.0)
  end
  begin
     id 18 
     name lhumerus
     direction 1 -4.4897e-011 -5.62117e-018   
     length 5.59864   
     axis 180 -30 -90   XYZ
    dof rx ry rz
    limits (-60.0 90.0)
           (-90.0 90.0)
           (-90.0 90.0)
  end
  begin
     id 19
     name lradius
     direction 1 -4.48966e-011 -6.26295e-027   
     length 3.59542   
     axis 180 -30 -90   XYZ
    dof rx
    limits (-10.0 170.0)
  end
  begin
     id 20
     name lwrist
     direction 1 -4.48947e-011 -1.74096e-026   
     length 1.79771   
     axis 1.04567e-014 90 90   XYZ
    dof ry
    limits (-180.0 0.0)
 end
  begin
     id 21 
     name lhand
     direction 1 -4.49085e-011 -3.48469e-026   
     length 0.572014   
     axis 2.22196e-014 90 90   XYZ
    dof rx rz
    limits (-90.0 90.0)
           (-45.0 45.0)
  end
  begin
     id 22 
     name lfingers
     direction 1 -4.48884e-011 -6.96135e-026   
     length 0.461173   
     axis 4.44383e-014 90 90   XYZ
    dof rx
    limits (0.0 90.0)
  end
  begin
     id 23
     name lthumb
     direction 0.707107 -6.34976e-011 0.707107   
     length 0.662154   
     axis -90 45 -5.4397e-014   XYZ
    dof rx rz
    limits (-45.0 45.0)
           (-45.0 45.0)
  end
  begin
     id 24 
     name rclavicle
     direction -0.890242 0.443271 0.104786   
     length 3.46753  
     axis 0 0 0   XYZ 
    dof ry rz
    limits (-10.0 20.0)
           (-20.0 0.0)
  end
  begin
     id 25 
     name rhumerus
     direction -1 -4.48963e-011 -5.41723e-018  
     length 5.8094   
     axis 180 30 90   XYZ
    dof rx ry rz
    limits (-90.0 60.0)
           (-90.0 90.0)
           (-90.0 90.0)
  end
  begin
     id 26 
     name rradius
     direction -1 -4.48958e-011 -6.51059e-027   
     length 3.66953   
     axis 180 30 90   XYZ
    dof rx
    limits (-10.0 170.0)
  end
  begin
     id 27 
     name rwrist
     direction -1 -4.48975e-011 -1.74124e-026   
     length 1.83476   
     axis 1.04567e-014 -90 -90   XYZ
    dof ry
    limits (-180.0 0.0)
  end
  begin
     id 28
     name rhand
     direction -1 -4.49013e-011 -3.48326e-026   
     length 0.57843   
     axis 2.22196e-014 -90 -90   XYZ
    dof rx rz
    limits (-90.0 90.0)
           (-45.0 45.0)
  end
  begin
     id 29
     name rfingers
     direction -1 -4.49023e-011 -6.9669e-026   
     length 0.466345   
     axis 4.44383e-014 -90 -90   XYZ
    dof rx
    limits (0.0 90.0)
  end
  begin
     id 30
     name rthumb
     direction -0.707107 -6.34926e-011 0.707107   
     length 0.669581   
     axis -90 -45 5.4397e-014   XYZ
    dof rx rz
    limits (-45.0 45.0)
           (-45.0 45.0)
  end
:hierarchy
  begin
    root lhipjoint rhipjoint lowerback
    lhipjoint lfemur
    lfemur ltibia
    ltibia lfoot
    lfoot ltoes
    rhipjoint rfemur
    rfemur rtibia
    rtibia rfoot
    rfoot rtoes
    lowerback upperback
    upperback thorax
    thorax lowerneck lclavicle rclavicle
    lowerneck upperneck
    upperneck head
    lclavicle lhumerus
    lhumerus lradius
    lradius lwrist
    lwrist lhand lthumb
    lhand lfingers
    rclavicle rhumerus
    rhumerus rradius
    rradius rwrist
    rwrist rhand rthumb
    rhand rfingers
  end

#!OML:ASF H:\SkateBoarding\Project 1\Capture day 1\Session 1\Skater.ASF
:FULLY-SPECIFIED
:DEGREES
114
root 5.79214 18.0997 -22.667 13.5624 5.55084 2.77235
lowerback 14.5326 5.91515 -4.71996
upperback 5.02216 7.07029 -0.963135
thorax -3.21239 3.48266 0.403374
lowerneck -22.2885 -4.16705 -0.474096
upperneck 31.4702 -7.07198 3.53935
head 14.8167 -2.48014 0.207026
rclavicle -6.79844e-014 2.70347e-014
rhumerus -5.00083 0.902181 -75.0454
rradius 28.9111
rwrist 16.4191
rhand -30.6008 7.91486
rfingers 7.12502
rthumb -3.89766 -22.0292
lclavicle -6.79844e-014 2.70347e-014
lhumerus -41.2053 -3.8595 87.3185
lradius 34.9268
lwrist 18.1354
lhand -19.0872 15.4655
lfingers 7.12502
lthumb 7.22094 45.3223
rfemur 0.165365 6.64538 17.6247
rtibia 27.2319
rfoot -10.6351 19.8124
rtoes 5.60071
lfemur -43.0938 -8.56911 -16.9042
ltibia 36.588
lfoot -27.2906 -2.43013
ltoes -5.03894
115
root 5.83875 18.1165 -22.5191 13.59 5.35807 2.99818
lowerback 14.9705 6.01502 -5.09135
upperback 5.18583 7.12076 -0.964594
thorax -3.3164 3.50343 0.559992
lowerneck -22.4283 -4.27847 -0.478772
upperneck 31.379 -7.22151 3.51499
head 14.8088 -2.54754 0.166039
rclavicle -3.45885e-014 1.35174e-014
rhumerus -4.26805 0.748942 -74.9761
rradius 28.2853
rwrist 17.4906
rhand -31.1162 7.78061
rfingers 7.12502
rthumb -4.39536 -22.1538
lclavicle -3.45885e-014 1.35174e-014
lhumerus -41.0123 -4.09921 87.4556
lradius 35.0803
lwrist 18.2788
lhand -19.1742 14.9669
lfingers 7.12502
lthumb 7.13696 44.8266
rfemur -1.85847 5.3865 16.8681
rtibia 31.4796
rfoot -7.75022 19.3434
rtoes 7.1863
lfemur -42.4428 -8.938 -17.1714
ltibia 36.3918
lfoot -27.5362 -2.48245
ltoes -3.62926
116
root 5.88401 18.1331 -22.3796 13.7718 5.05177 3.18997
lowerback 15.3359 6.17377 -5.54303
upperback 5.28004 7.23697 -0.933168
thorax -3.47216 3.55738 0.78329
lowerneck -22.5729 -4.41474 -0.529268
upperneck 31.3307 -7.38699 3.47809
head 14.8231 -2.62736 0.124298
rclavicle -1.28415e-013 7.71285e-014
rhumerus -3.4949 0.386196 -74.8505
rradius 27.8599
rwrist 17.6652
rhand -30.5026 7.7528
rfingers 7.12502
rthumb -3.80281 -22.193
lclavicle -1.28415e-013 7.71285e-014
lhumerus -40.8065 -4.41109 87.6633
lradius 35.1808
lwrist 18.4654
lhand -19.1971 15.3547
lfingers 7.12502
lthumb 7.11491 45.2151
rfemur -4.3294 4.2341 16.1058
rtibia 36.0561
rfoot -5.67972 17.8564
rtoes 6.28753
lfemur -41.9577 -9.12635 -17.4261
ltibia 36.0804
lfoot -27.6161 -2.89354
ltoes -2.33326
117
root 5.92527 18.1586 -22.243 13.8903 4.8063 3.36365
lowerback 15.8185 6.32708 -5.97891
upperback 5.40811 7.33733 -0.87665
thorax -3.65508 3.60311 1.01619
lowerneck -22.8422 -4.52777 -0.505352
upperneck 31.3658 -7.51799 3.33888
head 14.8924 -2.69352 0.0314461
rclavicle 3.89618e-014 1.11319e-014
rhumerus -2.68698 0.0457692 -74.7111
rradius 27.386
rwrist 17.8759
rhand -31.3682 8.31621
rfingers 7.12502
rthumb -4.63866 -21.613
lclavicle 3.89618e-014 1.11319e-014
lhumerus -40.533 -4.78155 87.9309
lradius 35.2861
lwrist 18.5411
lhand -19.08 14.642
lfingers 7.12502
lthumb 7.22793 44.4986
rfemur -6.86839 3.13247 15.4529
rtibia 40.8087
rfoot -3.54751 16.0913
rtoes 7.15285
lfemur -41.3689 -9.22757 -17.7249
ltibia 35.5771
lfoot -27.6828 -2.79268
ltoes -3.19103
118
root 5.97079 18.1904 -22.1077 14.0017 4.65596 3.574
lowerback 16.3787 6.47687 -6.24443
upperback 5.48478 7.44299 -0.909946
thorax -3.90212 3.65418 1.04936
lowerneck -22.9541 -4.67521 -0.350495
upperneck 31.3685 -7.74398 3.19379
head 14.9077 -2.7882 -0.100602
rclavicle -3.97569e-014 3.97569e-015
rhumerus -2.02161 -0.474546 -74.6218
rradius 26.9899
rwrist 17.9899
rhand -31.3535 8.53391
rfingers 7.12502
rthumb -4.62453 -21.3956
lclavicle -3.97569e-014 3.97569e-015
lhumerus -40.3798 -5.55698 88.1742
lradius 35.4847
lwrist 18.8068
lhand -19.2832 15.6274
lfingers 7.12502
lthumb 7.03176 45.4906
rfemur -9.53858 2.05513 14.816
rtibia 45.8009
rfoot -2.52149 14.2381
rtoes 5.8132
lfemur -40.6743 -9.42945 -18.0706
ltibia 34.9533
lfoot -27.7676 -2.49779
ltoes -2.8143
119
root 6.01316 18.2548 -21.9752 14.2292 4.29652 3.71496
lowerback 16.842 6.61099 -6.6595
upperback 5.59139 7.51332 -0.850566
thorax -4.09334 3.68578 1.27878
lowerneck -23.4946 -4.65079 -0.268134
upperneck 31.5555 -7.64993 2.8821
head 15.0875 -2.76855 -0.239007
rclavicle 4.77083e-014 -5.08889e-014
rhumerus -1.068 -0.659426 -74.5037
rradius 26.5524
rwrist 18.1079
rhand -31.2716 8.67307
rfingers 7.12502
rthumb -4.54544 -21.2582
lclavicle 4.77083e-014 -5.08889e-014
lhumerus -40.2518 -6.1702 88.4838
lradius 35.8395
lwrist 19.1842
lhand -19.2785 15.209
lfingers 7.12502
lthumb 7.03635 45.072
rfemur -12.5175 1.29442 14.2481
rtibia 50.8938
rfoot -1.5463 12.0708
rtoes 5.59543
lfemur -40.0133 -9.4152 -18.3711
ltibia 34.1767
lfoot -27.8799 -1.98724
ltoes -3.80976
120
root 6.05372 18.2981 -21.8466 14.2892 4.06589 3.97464
lowerback 17.4557 6.7426 -7.14555
upperback 5.77564 7.55527 -0.753279
thorax -4.29048 3.70178 1.5821
lowerneck -23.7837 -4.72342 -0.288441
upperneck 31.521 -7.65982 2.63375
head 15.1207 -2.80815 -0.347258
rclavicle -1.03368e-014 7.95139e-015
rhumerus -0.112236 -0.780545 -74.2914
rradius 26.2047
rwrist 18.0501
rhand -31.0266 8.69991
rfingers 7.12502
rthumb -4.30883 -21.2363
lclavicle -1.03368e-014 7.95139e-015
lhumerus -39.9829 -6.82027 88.956
lradius 36.0974
lwrist 19.2797
lhand -19.3095 15.2851
lfingers 7.12502
lthumb 7.00637 45.1491
rfemur -15.5031 0.574818 13.6233
rtibia 56.2143
rfoot -1.06374 9.37557
rtoes 3.10044
lfemur -39.0596 -9.40267 -18.8704
ltibia 33.2623
lfoot -27.9615 -1.76785
ltoes -4.18169
121
root 6.09037 18.3495 -21.7214 14.449 4.01666 4.30482
lowerback 18.1041 6.78492 -7.51751
upperback 5.90145 7.48492 -0.753029
thorax -4.53 3.66581 1.74208
lowerneck -23.9765 -4.80982 -0.269957
upperneck 31.3828 -7.73757 2.49314
head 15.0908 -2.86081 -0.427563
rclavicle 3.33958e-014 7.15625e-015
rhumerus 0.869964 -1.05841 -74.2426
rradius 25.8253
rwrist 18.226
rhand -30.9083 8.65431
rfingers 7.12502
rthumb -4.1946 -21.2841
lclavicle 3.33958e-014 7.15625e-015
lhumerus -39.6923 -7.57474 89.2785
lradius 36.4
lwrist 19.5249
lhand -18.5535 14.8596
lfingers 7.12502
lthumb 7.73615 44.698
rfemur -18.7924 -0.0917634 13.0161
rtibia 61.6295
rfoot -0.0406603 5.35822
rtoes 1.40938
lfemur -38.1494 -9.61386 -19.3249
ltibia 32.2231
lfoot -28.067 -1.4842
ltoes -4.22433
122
root 6.12483 18.403 -21.5995 14.6675 3.97275 4.63397
lowerback 18.6516 6.8606 -7.91789
upperback 6.03092 7.46125 -0.702538
thorax -4.72471 3.65221 1.97095
lowerneck -24.0019 -4.93408 -0.337698
upperneck 31.1172 -7.83554 2.38425
head 14.972 -2.93484 -0.478195
rclavicle 5.80451e-014 -8.74653e-015
rhumerus 1.77879 -1.25901 -74.0719
rradius 25.4712
rwrist 18.5771
rhand -29.6877 8.23705
rfingers 7.12502
rthumb -3.01586 -21.7214
lclavicle 5.80451e-014 -8.74653e-015
lhumerus -39.4286 -8.48993 89.7129
lradius 36.7746
lwrist 19.8074
lhand -18.8069 14.5627
lfingers 7.12502
lthumb 7.4915 44.41
rfemur -22.3753 -0.669188 12.4168
rtibia 67.011
rfoot 1.54286 1.78234
rtoes -0.0989884
lfemur -37.3618 -9.70266 -19.835
ltibia 31.2415
lfoot -28.0543 -1.54121
ltoes -3.89897
123
root 6.15613 18.4444 -21.4857 14.9074 3.83755 5.00613
lowerback 19.2027 6.95446 -8.33162
upperback 6.20133 7.45247 -0.697619
thorax -4.87112 3.64403 2.15846
lowerneck -24.1399 -5.04826 -0.403842
upperneck 30.799 -7.92681 2.29793
head 14.8559 -3.00239 -0.520585
rclavicle 3.26007e-014 7.95139e-016
rhumerus 2.88218 -1.72358 -73.9983
rradius 24.9989
rwrist 19.2063
rhand -29.9412 8.23049
rfingers 7.12502
rthumb -3.26063 -21.7243
lclavicle 3.26007e-014 7.95139e-016
lhumerus -38.9897 -9.45468 90.0732
lradius 37.0559
lwrist 20.016
lhand -18.4943 14.6953
lfingers 7.12502
lthumb 7.7933 44.5317
rfemur -25.8788 -1.13095 11.7347
rtibia 72.2847
rfoot 3.06102 -0.116385
rtoes 1.80978
lfemur -36.6367 -9.78418 -20.3767
ltibia 30.2693
lfoot -28.1393 -1.40209
ltoes -4.16288
124
root 6.18721 18.4847 -21.3607 14.8205 4.05398 5.44293
lowerback 19.897 6.99098 -8.80647
upperback 6.57111 7.36147 -0.467875
thorax -4.89867 3.58758 2.6411
lowerneck -24.1917 -5.18756 -0.654396
upperneck 30.3582 -7.95382 2.16634
head 14.6719 -3.07677 -0.533743
rclavicle 3.81667e-014 3.57812e-014
rhumerus 4.09908 -1.92891 -73.6321
rradius 24.5871
rwrist 19.5374
rhand -29.9706 8.0646
rfingers 7.12502
rthumb -3.28908 -21.8898
lclavicle 3.81667e-014 3.57812e-014
lhumerus -38.4149 -10.3068 90.6427
lradius 37.2359
lwrist 19.9933
lhand -18.3603 14.3678
lfingers 7.12502
lthumb 7.92264 44.1993
rfemur -28.4828 -1.83579 11.0826
rtibia 77.1878
rfoot 3.67047 1.68206
rtoes 1.12041
lfemur -35.5338 -10.3172 -20.8474
ltibia 29.4247
lfoot -28.4396 -1.4747
ltoes -4.05494
125
root 6.21757 18.5022 -21.2533 15.2672 3.82259 5.75822
lowerback 20.3561 7.03218 -8.98753
upperback 6.62348 7.31734 -0.602733
thorax -5.07277 3.56663 2.56658
lowerneck -24.313 -5.23302 -0.669157
upperneck 30.0921 -7.98605 2.12758
head 14.5776 -3.10461 -0.553164
rclavicle 1.98785e-014 -3.89618e-014
rhumerus 5.08377 -2.39971 -73.7698
rradius 24.2316
rwrist 20.111
rhand -29.8904 7.9864
rfingers 7.12502
rthumb -3.21162 -21.9692
lclavicle 1.98785e-014 -3.89618e-014
lhumerus -38.0807 -11.4154 90.8232
lradius 37.6844
lwrist 20.1412
lhand -18.1974 14.8213
lfingers 7.12502
lthumb 8.07977 44.6468
rfemur -32.0857 -2.24937 10.3786
rtibia 82.061
rfoot 4.10392 4.25258
rtoes 0.653326
lfemur -35.1919 -10.1906 -21.4249
ltibia 28.5598
lfoot -28.4157 -1.48008
ltoes -3.97687
126
root 6.2516 18.5198 -21.1527 15.7368 3.18331 5.83424
lowerback 20.6986 7.24176 -9.23077
upperback 6.67863 7.49469 -0.610999
thorax -5.23308 3.65134 2.60934
lowerneck -24.3923 -5.29455 -0.753148
upperneck 29.8026 -7.98176 2.0051
head 14.4619 -3.13879 -0.586013
rclavicle 3.49861e-014 -3.26007e-014
rhumerus 6.12359 -2.63247 -73.6777
rradius 23.8508
rwrist 20.5175
rhand -30.0796 8.03065
rfingers 7.12502
rthumb -3.39429 -21.9221
lclavicle 3.49861e-014 -3.26007e-014
lhumerus -37.5977 -12.3675 91.1192
lradius 37.8934
lwrist 20.1043
lhand -18.049 14.7471
lfingers 7.12502
lthumb 8.223 44.567
rfemur -35.9782 -2.26235 9.77604
rtibia 86.7426
rfoot 4.63434 6.83374
rtoes 1.60296
lfemur -34.902 -10.1738 -21.6035
ltibia 27.7452
lfoot -28.9867 -1.40409
ltoes -3.65224
